# xmcd
#
# Track frame offsets: 
#        150
#        20650
#        40210
#        87647
#        121045
#        155840
#        183250
#        203077
#        232717
#        264237
#
# Disc length: 3786 seconds
#
# Revision: 1
# Processed by: cddbd v1.5.2PL0 Copyright (c) Steve Scherf et al.
# Submitted via: ExactAudioCopy v0.95b4
#
DISCID=790ec80a
DTITLE=Various Artist - Jazz from the fourth floor
DYEAR=2002
DGENRE=Jazz
TTITLE0=People - Jan Lundgren Trio
TTITLE1=Så länge skutan kan gå - Bernt Rosenberg Octet
TTITLE2=Desert Room - Magnus Lindgren Group
TTITLE3=Snake City West - Jonas Kullhammar Quartet (minus one)
TTITLE4=Paradise Open - Magnus Lindgren Group
TTITLE5=In Walked Horace - The Ronnie Gardiner Septet
TTITLE6=For Daniel - Jan Allan,Jan Strinnholm
TTITLE7=Ask me now - Sweet Jazz Trio 
TTITLE8=Walkin' - Fredrik Norén Band
TTITLE9=Prelude to a kiss - Jan Lundgren
EXTD=YEAR: 2002
EXTT0=
EXTT1=
EXTT2=
EXTT3=
EXTT4=
EXTT5=
EXTT6=
EXTT7=
EXTT8=
EXTT9=
PLAYORDER=
